<svg xmlns="http://www.w3.org/2000/svg" width="21" height="20" fill="none" viewBox="0 0 21 20">
    <g clip-path="url(#clip0)">
        <path stroke="#fff" stroke-miterlimit="10" d="M19.758 12.492v6.831c0 .038-.006.076-.02.111-.014.036-.035.068-.061.095-.027.028-.058.05-.093.064-.035.015-.073.022-.111.022h-3.738c-.078 0-.152-.03-.207-.085-.055-.055-.086-.13-.086-.207V13.27c.037-.705-.065-1.41-.3-2.077-.125-.298-.341-.55-.617-.718-.277-.168-.599-.245-.921-.22-.327-.034-.658.026-.95.175-.294.149-.538.38-.704.663-.287.65-.413 1.36-.37 2.07v6.153c.002.039-.005.077-.019.113-.013.036-.034.069-.06.096-.027.028-.059.05-.094.066s-.073.024-.111.025H7.65c-.076-.002-.149-.033-.202-.088-.053-.055-.083-.128-.083-.204V6.893c0-.077.03-.15.083-.205.053-.054.126-.086.202-.088h3.477c.077.002.15.033.204.088.055.054.086.127.088.204v.877c.296-.292.643-.53 1.023-.7.754-.329 1.57-.489 2.393-.469 1.28-.106 2.552.292 3.546 1.108.764.808 1.218 1.859 1.284 2.969 0 .27.054.57.07.877.015.307.023.63.023.938zM5.466 6.892v12.431c-.001.04-.01.081-.027.118-.017.037-.042.07-.072.098-.03.027-.066.048-.104.061-.039.013-.08.018-.12.015H.82c-.078 0-.152-.03-.207-.085-.055-.055-.086-.13-.086-.207V6.893c0-.04.008-.077.023-.113.014-.035.036-.067.063-.094.027-.028.06-.05.095-.064C.743 6.608.78 6.6.82 6.6h4.323c.04-.002.08.004.119.017.038.014.073.035.103.062.03.027.054.06.072.097.017.036.027.076.029.116v0zM5.466 2.854c-.003.644-.257 1.262-.708 1.723v0c-.404.404-.935.655-1.504.711-.568.056-1.138-.086-1.613-.404-.475-.317-.826-.79-.992-1.336-.166-.547-.137-1.134.082-1.662.218-.527.613-.963 1.117-1.232.504-.27 1.085-.356 1.646-.245.56.112 1.064.414 1.427.855.362.442.56.996.56 1.567l-.015.023z"/>
    </g>
    <defs>
        <clipPath id="clip0">
            <path fill="#fff" d="M0 0H20V20H0z" transform="translate(.143)"/>
        </clipPath>
    </defs>
</svg>
